REM MD5 cecb867dfc541518b223b04c42cc86fd
FILE "PlayStation Underground Jampack - Winter '98 (USA).bin" BINARY
  TRACK 01 MODE2/2352
    INDEX 01 00:00:00
  TRACK 02 AUDIO
    INDEX 00 63:47:08
    INDEX 01 63:49:08
  TRACK 03 AUDIO
    INDEX 00 65:04:07
    INDEX 01 65:06:07
  TRACK 04 AUDIO
    INDEX 00 66:21:13
    INDEX 01 66:23:13
  TRACK 05 AUDIO
    INDEX 00 70:41:29
    INDEX 01 70:43:29
REM LEADOUT 70:49:25
